<svg xmlns="http://www.w3.org/2000/svg" xmlns:xlink="http://www.w3.org/1999/xlink" height="300px" width="300px" viewBox="-100 -100 200 200">

    <rect x="-75" y="-50" height="80" width="160" fill="green" stroke-width="0" />

<g id="pocket" stroke="black" fill="saddlebrown">
    <path d="M -9 30
    A 10 10 0 0 1 11 30
    L 6 30
    A 5 5 0 0 0 -4 30
    L -9 30
    Z"/>
    <circle cx="1" cy="30" r="4" fill="black" stroke-width="2" stroke="dimgrey"/>
</g>

    <use transform="translate(-45,5) rotate(45)" stroke="blue" xlink:href="#pocket" />
    <use transform="translate(-45,-20) rotate(135)" stroke="blue" xlink:href="#pocket" />
    <use transform="translate(0,-15) rotate(180)" stroke="blue" xlink:href="#pocket" />
   

    <use transform="translate(55,5) rotate(-45)" stroke="blue" xlink:href="#pocket" />
    <use transform="translate(55,-20) rotate(-135)" stroke="blue" xlink:href="#pocket" />

    <rect x="-75" y="-50" height="5" width="160" fill="dark green" stroke-width="0" />
    <rect x="-75" y="30" height="5" width="160" fill="dark green" stroke-width="0" />
    <rect x="-75" y="-50" height="80" width="5" fill="dark green" stroke-width="0" />
    <rect x="80" y="-50" height="80" width="5" fill="dark green" stroke-width="0" />

    <circle cx="-45" cy="-10" r="5" fill="white" stroke-width="0" />

    <circle cx="27" cy="-5" r="5" fill="yellow" stroke-width="0"/> 
    
    <circle cx="36" cy="1"  r="4" fill="white" stroke-width="2" stroke="yellow"/>
    <circle cx="36" cy="-9" r="5" fill="blue" stroke-width="0"/>

    <circle cx="45" cy="5" r="4" fill="white" stroke-width="2" stroke="blue"/>
    <circle cx="45" cy="-5" r="5" fill="black" stroke-width="0" />
    <circle cx="45" cy="-15" r="5" fill="red" stroke-width="0" />


    <circle cx="54" cy="11" r="4" fill="white" stroke-width="2" stroke="red"/>
    <circle cx="54" cy="1" r="5" fill="maroon" stroke-width="0" />
    <circle cx="54" cy="-9" r="4" fill="white" stroke-width="2" stroke="turquoise"/>
    <circle cx="54" cy="-19" r="5" fill="purple" stroke-width="0"/>

    <circle cx="63" cy="15" r="5" fill="orange" stroke-width="0"/>
    <circle cx="63" cy="5" r="4" fill="white" stroke-width="2" stroke="orange"/>
    <circle cx="63" cy="-5" r="4" fill="white" stroke-width="2" stroke="maroon"/>
    <circle cx="63" cy="-15" r="5" fill="turquoise" stroke-width="0" />
    <circle cx="63" cy="-25" r="4" fill="white" stroke-width="2" stroke="purple"/>


    <polygon points="14,-5 69,-36 69,27" stroke="brown" stroke-width="3" fill="none"/>



</svg>

